<svg width="56" height="56" viewBox="0 0 56 56" fill="none" xmlns="http://www.w3.org/2000/svg">
<path d="M26.2438 23.3833L21.6521 27.975C21.3618 28.2653 20.9924 28.4104 20.5438 28.4104C20.0951 28.4104 19.7257 28.2653 19.4354 27.975C19.1451 27.6847 19 27.3153 19 26.8667C19 26.4181 19.1451 26.0486 19.4354 25.7583L26.7188 18.475C27.0354 18.1583 27.4049 18 27.8271 18C28.2493 18 28.6188 18.1583 28.9354 18.475L36.2188 25.7583C36.509 26.0486 36.6542 26.4181 36.6542 26.8667C36.6542 27.3153 36.509 27.6847 36.2188 27.975C35.9285 28.2653 35.559 28.4104 35.1104 28.4104C34.6618 28.4104 34.2924 28.2653 34.0021 27.975L29.4104 23.3833V36.3667C29.4104 36.8153 29.2587 37.1913 28.9552 37.4948C28.6517 37.7983 28.2757 37.95 27.8271 37.95C27.3785 37.95 27.0024 37.7983 26.699 37.4948C26.3955 37.1913 26.2438 36.8153 26.2438 36.3667V23.3833Z" fill="white"/>
</svg>
