<svg width="56" height="56" viewBox="0 0 56 56" fill="none" xmlns="http://www.w3.org/2000/svg">
<path d="M14 22C13.4477 22 13 21.5523 13 21V18C13 15.7909 14.7909 14 17 14H20C20.5523 14 21 14.4477 21 15C21 15.5523 20.5523 16 20 16H18C16.3431 16 15 17.3431 15 19V21C15 21.5523 14.5523 22 14 22Z" fill="#6A95EA"/>
<path d="M39 14C41.2091 14 43 15.7909 43 18V21C43 21.5523 42.5523 22 42 22C41.4477 22 41 21.5523 41 21V19C41 17.3431 39.6569 16 38 16H36C35.4477 16 35 15.5523 35 15C35 14.4477 35.4477 14 36 14H39Z" fill="#6A95EA"/>
<path d="M14 34C13.4477 34 13 34.4477 13 35V38C13 40.2091 14.7909 42 17 42H20C20.5523 42 21 41.5523 21 41C21 40.4477 20.5523 40 20 40H18C16.3431 40 15 38.6569 15 37V35C15 34.4477 14.5523 34 14 34Z" fill="#6A95EA"/>
<path d="M39 42C41.2091 42 43 40.2091 43 38V35C43 34.4477 42.5523 34 42 34C41.4477 34 41 34.4477 41 35V37C41 38.6569 39.6569 40 38 40H36C35.4477 40 35 40.4477 35 41C35 41.5523 35.4477 42 36 42H39Z" fill="#6A95EA"/>
<path d="M20 23C20 22.4477 19.5523 22 19 22C18.4477 22 18 22.4477 18 23V33C18 33.5523 18.4477 34 19 34C19.5523 34 20 33.5523 20 33V23Z" fill="#6A95EA"/>
<path d="M25 23C25 22.4477 25.4477 22 26 22C26.5523 22 27 22.4477 27 23V33C27 33.5523 26.5523 34 26 34C25.4477 34 25 33.5523 25 33V23Z" fill="#6A95EA"/>
<path d="M30 23C30 22.4477 29.5523 22 29 22C28.4477 22 28 22.4477 28 23V33C28 33.5523 28.4477 34 29 34C29.5523 34 30 33.5523 30 33V23Z" fill="#6A95EA"/>
<path d="M31 23C31 22.4477 31.4477 22 32 22C32.5523 22 33 22.4477 33 23V33C33 33.5523 32.5523 34 32 34C31.4477 34 31 33.5523 31 33V23Z" fill="#6A95EA"/>
<path d="M38 23C38 22.4477 37.5523 22 37 22C36.4477 22 36 22.4477 36 23V33C36 33.5523 36.4477 34 37 34C37.5523 34 38 33.5523 38 33V23Z" fill="#6A95EA"/>
</svg>
