<svg width="56" height="56" viewBox="0 0 56 56" fill="none" xmlns="http://www.w3.org/2000/svg">
<path d="M23.2466 21.998H25.0583V36.4915H23.2466V21.998Z" fill="#FA8F8F"/>
<path d="M26.8701 21.998H28.6818V36.4915H26.8701V21.998Z" fill="#FA8F8F"/>
<path d="M30.4932 21.998H32.3048V36.4915H30.4932V21.998Z" fill="#FA8F8F"/>
<path d="M16 16.5625H39.5519V18.3742H16V16.5625Z" fill="#FA8F8F"/>
<path d="M32.2448 17.4688H30.5539V15.6571C30.5539 15.1136 30.1311 14.6909 29.5876 14.6909H25.9643C25.4208 14.6909 24.998 15.1136 24.998 15.6571V17.4688H23.3071V15.6571C23.3071 14.2078 24.5149 13 25.9643 13H29.5876C31.037 13 32.2448 14.2078 32.2448 15.6571V17.4688Z" fill="#FA8F8F"/>
<path d="M33.2108 41.9263H22.3407C20.8914 41.9263 19.6232 40.7185 19.5024 39.2692L17.8115 17.529L19.6232 17.4082L21.3141 39.1484C21.3745 39.6919 21.8576 40.1146 22.3407 40.1146H33.2108C33.7543 40.1146 34.2375 39.6315 34.2375 39.1484L35.9284 17.4082L37.7401 17.529L36.0491 39.2692C35.9284 40.7789 34.6602 41.9263 33.2108 41.9263Z" fill="#FA8F8F"/>
</svg>
