<svg width="32" height="32" viewBox="0 0 32 32" fill="none" xmlns="http://www.w3.org/2000/svg">
<path fill-rule="evenodd" clip-rule="evenodd" d="M14 4C11.7909 4 10 5.79086 10 8V9H7.94875C7.41689 9 6.97809 9.41632 6.95013 9.94744L6.1108 25.8949C6.05057 27.0392 6.96216 28 8.10803 28H23.892C25.0378 28 25.9494 27.0392 25.8892 25.8949L25.0499 9.94744C25.0219 9.41632 24.5831 9 24.0512 9H22V8C22 5.79086 20.2091 4 18 4H14ZM20 9V8C20 6.89543 19.1046 6 18 6H14C12.8954 6 12 6.89543 12 8V9H20ZM11 11C10.4477 11 10 11.4477 10 12V13C10 13.5523 10.4477 14 11 14C11.5523 14 12 13.5523 12 13V12C12 11.4477 11.5523 11 11 11ZM21 11C20.4477 11 20 11.4477 20 12V13C20 13.5523 20.4477 14 21 14C21.5523 14 22 13.5523 22 13V12C22 11.4477 21.5523 11 21 11Z" fill="#0C0C0E"/>
</svg>
