<svg width="56" height="56" viewBox="0 0 56 56" fill="none" xmlns="http://www.w3.org/2000/svg">
<path d="M30 22C30 23.1046 29.1046 24 28 24C26.8954 24 26 23.1046 26 22C26 20.8954 26.8954 20 28 20C29.1046 20 30 20.8954 30 22Z" fill="#D6F3FF"/>
<path d="M29 34V28H30V26H26V28H27V34H26V36H30V34H29Z" fill="#D6F3FF"/>
<path fill-rule="evenodd" clip-rule="evenodd" d="M28 44C36.8366 44 44 36.8366 44 28C44 19.1634 36.8366 12 28 12C19.1634 12 12 19.1634 12 28C12 36.8366 19.1634 44 28 44ZM28 42C35.732 42 42 35.732 42 28C42 20.268 35.732 14 28 14C20.268 14 14 20.268 14 28C14 35.732 20.268 42 28 42Z" fill="#D6F3FF"/>
</svg>
