<svg width="56" height="56" viewBox="0 0 56 56" fill="none" xmlns="http://www.w3.org/2000/svg">
<path d="M17 21H27V23H17V21Z" fill="#6A95EA"/>
<path d="M39 21H29V23H39V21Z" fill="#6A95EA"/>
<path d="M17 25H31V27H17V25Z" fill="#6A95EA"/>
<path d="M17 29H26V31H17V29Z" fill="#6A95EA"/>
<path d="M28 31V29H35V31H28Z" fill="#6A95EA"/>
<path d="M33 25H39V27H33V25Z" fill="#6A95EA"/>
<path fill-rule="evenodd" clip-rule="evenodd" d="M16 15C13.7909 15 12 16.7909 12 19V34C12 36.2091 13.7909 38 16 38H18V42C18 42.4045 18.2436 42.7691 18.6173 42.9239C18.991 43.0787 19.4211 42.9931 19.7071 42.7071L24.4142 38H40C42.2091 38 44 36.2091 44 34V19C44 16.7909 42.2091 15 40 15H16ZM14 19C14 17.8954 14.8954 17 16 17H40C41.1046 17 42 17.8954 42 19V34C42 35.1046 41.1046 36 40 36H24C23.7348 36 23.4804 36.1054 23.2929 36.2929L20 39.5858V37C20 36.4477 19.5523 36 19 36H16C14.8954 36 14 35.1046 14 34V19Z" fill="#6A95EA"/>
</svg>
