<svg width="44" height="44" viewBox="0 0 44 44" fill="none" xmlns="http://www.w3.org/2000/svg">
<path d="M11.0166 37C6.25625 37 3.38747 31.5426 5.97353 27.4064L16.9569 9.83936C19.3239 6.05355 24.6761 6.05354 27.0431 9.83936L38.0265 27.4064C40.6125 31.5426 37.7438 37 32.9834 37H11.0166Z" fill="#E12121"/>
<path d="M11.0166 37C6.25625 37 3.38747 31.5426 5.97353 27.4064L16.9569 9.83936C19.3239 6.05355 24.6761 6.05354 27.0431 9.83936L38.0265 27.4064C40.6125 31.5426 37.7438 37 32.9834 37H11.0166Z" fill="#E12121"/>
<path d="M5.12562 26.8763C2.15547 31.6268 5.41048 38 11.0166 38H32.9834C38.5895 38 41.8445 31.6268 38.8744 26.8763L27.891 9.30922C25.1323 4.89692 18.8677 4.89693 16.109 9.30922L5.12562 26.8763Z" stroke="#E12121" stroke-opacity="0.5" stroke-width="2"/>
<path d="M11.0166 36C7.10202 36 4.61947 31.4585 6.82144 27.9366L17.8049 10.3695C19.7802 7.21017 24.2198 7.21017 26.1951 10.3695L37.1786 27.9366C39.3805 31.4585 36.898 36 32.9834 36H11.0166Z" stroke="#C2111C" stroke-width="2"/>
<rect x="21" y="16" width="2" height="10" fill="white"/>
<rect x="21" y="28" width="2" height="2" fill="white"/>
</svg>
